<svg xmlns="http://www.w3.org/2000/svg" width="420" height="430" viewBox="0 0 420 430">
<rect width="420" height="430" rx="14" fill="#0A172B" stroke="#173A5D"/>
<text x="24" y="32" fill="#DDE7F5" font-family="ui-monospace,SFMono-Regular,Consolas,monospace" font-size="15" font-weight="700">SREEHARI SKILL RADAR</text>
<polygon points="210.0,160.4 248.6,182.7 248.6,227.3 210.0,249.6 171.4,227.3 171.4,182.7" fill="none" stroke="#173A5D" opacity=".8"/><polygon points="210.0,115.9 287.2,160.4 287.2,249.5 210.0,294.1 132.8,249.6 132.8,160.4" fill="none" stroke="#173A5D" opacity=".8"/><polygon points="210.0,70.0 326.9,137.5 326.9,272.5 210.0,340.0 93.1,272.5 93.1,137.5" fill="none" stroke="#173A5D" opacity=".8"/>
<polygon points="210.0,94.3 298.9,153.7 308.2,261.7 210.0,288.7 118.8,257.7 125.8,156.4" fill="#22D3EE" fill-opacity=".16" stroke="#22D3EE" stroke-width="2"/>
<text x="210.0" y="42.0" text-anchor="middle" fill="#6F8CAA" font-family="ui-monospace,SFMono-Regular,Consolas,monospace" font-size="11">Python</text><text x="351.2" y="123.5" text-anchor="start" fill="#6F8CAA" font-family="ui-monospace,SFMono-Regular,Consolas,monospace" font-size="11">Excel</text><text x="351.2" y="286.5" text-anchor="start" fill="#6F8CAA" font-family="ui-monospace,SFMono-Regular,Consolas,monospace" font-size="11">MySQL</text><text x="210.0" y="368.0" text-anchor="middle" fill="#6F8CAA" font-family="ui-monospace,SFMono-Regular,Consolas,monospace" font-size="11">Android</text><text x="68.8" y="286.5" text-anchor="end" fill="#6F8CAA" font-family="ui-monospace,SFMono-Regular,Consolas,monospace" font-size="11">HTML</text><text x="68.8" y="123.5" text-anchor="end" fill="#6F8CAA" font-family="ui-monospace,SFMono-Regular,Consolas,monospace" font-size="11">CSS</text>
</svg>